<svg xmlns="http://www.w3.org/2000/svg" width="17.107" height="17.107" viewBox="0 0 17.107 17.107"><defs><style>.a{fill:#707070;}</style></defs><path class="a" d="M376.1,1417.336v-1.446a.852.852,0,0,0-.723-.723H371.84v-3.534a.852.852,0,0,0-.723-.723h-1.446a.852.852,0,0,0-.723.723v3.534h-3.534a.852.852,0,0,0-.723.723v1.446a.852.852,0,0,0,.723.723h3.534v3.534a.852.852,0,0,0,.723.723h1.446a.852.852,0,0,0,.723-.723v-3.534h3.534a.694.694,0,0,0,.482-.241A.572.572,0,0,0,376.1,1417.336Zm2.811-6.024v10.682a3.294,3.294,0,0,1-3.213,3.213H365.013a3.294,3.294,0,0,1-3.213-3.213v-10.682a3.294,3.294,0,0,1,3.213-3.213h10.682a3.294,3.294,0,0,1,3.213,3.213Z" transform="translate(-361.8 -1408.1)"/></svg>