<svg xmlns="http://www.w3.org/2000/svg" width="18.694" height="14.775" viewBox="0 0 18.694 14.775"><path d="M892.295,454.739V456.1a.8.8,0,0,1-.678.678H874.279a.8.8,0,0,1-.678-.678v-1.357a.8.8,0,0,1,.678-.678h17.338a.652.652,0,0,1,.452.226A.456.456,0,0,1,892.295,454.739Zm-4-4V452.1a.8.8,0,0,1-.678.678h-9.347a.8.8,0,0,1-.678-.678v-1.357a.8.8,0,0,1,.678-.678h9.347a.651.651,0,0,1,.452.226A.456.456,0,0,1,888.3,450.744Zm2.638-4v1.357a.8.8,0,0,1-.678.678h-14.7a.8.8,0,0,1-.678-.678v-1.357a.8.8,0,0,1,.678-.678h14.7a.652.652,0,0,1,.452.226C890.938,446.372,890.938,446.523,890.938,446.749Zm-4-4.071v1.357a.8.8,0,0,1-.678.678h-6.709a.8.8,0,0,1-.678-.678v-1.357a.8.8,0,0,1,.678-.678h6.709a.8.8,0,0,1,.678.678Z" transform="translate(-873.6 -442)"/></svg>