<svg xmlns="http://www.w3.org/2000/svg" width="18.695" height="14.775" viewBox="0 0 18.695 14.775"><g transform="translate(0)"><path d="M789.695,454.739V456.1a.8.8,0,0,1-.678.678H771.678A.8.8,0,0,1,771,456.1v-1.357a.8.8,0,0,1,.678-.678h17.338a.652.652,0,0,1,.452.226A.456.456,0,0,1,789.695,454.739Zm-4-4V452.1a.8.8,0,0,1-.678.678H771.678A.8.8,0,0,1,771,452.1v-1.357a.8.8,0,0,1,.678-.678h13.342a.652.652,0,0,1,.452.226A.537.537,0,0,1,785.7,450.744Zm2.714-4v1.357a.8.8,0,0,1-.678.678H771.678a.8.8,0,0,1-.678-.678v-1.357a.8.8,0,0,1,.678-.678h16.056a.651.651,0,0,1,.452.226A.456.456,0,0,1,788.413,446.749Zm-4.071-4.071v1.357a.8.8,0,0,1-.678.678H771.678a.8.8,0,0,1-.678-.678v-1.357a.8.8,0,0,1,.678-.678h11.986a.651.651,0,0,1,.452.226A.451.451,0,0,1,784.342,442.678Z" transform="translate(-771 -442)"/></g></svg>