<svg xmlns="http://www.w3.org/2000/svg" width="17.107" height="17.107" viewBox="0 0 17.107 17.107"><defs><style>.a{fill:#707070;}</style></defs><path class="a" d="M787.216,1356.936v-1.446a.852.852,0,0,0-.723-.723h-9.959a.852.852,0,0,0-.723.723v1.446a.852.852,0,0,0,.723.723h9.959a.694.694,0,0,0,.482-.241A.486.486,0,0,0,787.216,1356.936Zm2.891-6.024v10.682a3.294,3.294,0,0,1-3.213,3.213H776.213a3.294,3.294,0,0,1-3.213-3.213v-10.682a3.294,3.294,0,0,1,3.213-3.213h10.682a3.039,3.039,0,0,1,2.249.964A2.917,2.917,0,0,1,790.107,1350.913Z" transform="translate(-773 -1347.7)"/></svg>