<svg xmlns="http://www.w3.org/2000/svg" width="18.694" height="14.775" viewBox="0 0 18.694 14.775"><g transform="translate(0)"><path d="M738.395,454.739V456.1a.8.8,0,0,1-.678.678H720.378a.8.8,0,0,1-.678-.678v-1.357a.8.8,0,0,1,.678-.678h17.338a.652.652,0,0,1,.452.226A.538.538,0,0,1,738.395,454.739Zm0-4V452.1a.8.8,0,0,1-.678.678H724.374a.8.8,0,0,1-.678-.678v-1.357a.8.8,0,0,1,.678-.678h13.343a.652.652,0,0,1,.452.226A.538.538,0,0,1,738.395,450.744Zm0-4v1.357a.8.8,0,0,1-.678.678H721.66a.8.8,0,0,1-.678-.678v-1.357a.8.8,0,0,1,.678-.678h16.056a.652.652,0,0,1,.452.226A.538.538,0,0,1,738.395,446.749Zm0-4.071v1.357a.8.8,0,0,1-.678.678H725.73a.8.8,0,0,1-.678-.678v-1.357a.8.8,0,0,1,.678-.678h11.986a.8.8,0,0,1,.678.678Z" transform="translate(-719.7 -442)"/></g></svg>